<svg xmlns="http://www.w3.org/2000/svg" viewBox="0 0 737 854">
    <defs>
        <style>
            .cls-1 {
                fill: #ffea25;
            }

        </style>
    </defs>
    <g id="Layer_2" data-name="Layer 2">
        <g id="Layer_1-2" data-name="Layer 1">
            <path class="cls-1" d="M368.5,0C165,0,0,191.17,0,427S165,854,368.5,854,737,662.83,737,427,572,0,368.5,0ZM521.08,247.36c48.64-8.84,96.71,37,93,45.89-3.85,9.29-62.08-25.45-118.13.1-40.71,18.57-55.12,57.49-57.75,55.73C434.31,346.49,461,258.3,521.08,247.36Zm-283-3c58.54,17.51,75.29,108.11,71.13,110.26-2.81,1.45-12.83-38.83-51.25-61.77-52.87-31.59-114.59-3.49-117.39-13.15C137.91,270.42,190.74,230.2,238.11,244.36Zm106.5,519.75c-88.14-11.13-169-105.46-202.48-188.86a307.59,307.59,0,0,1-16.35-55.39c28.16,33.66,127.13,144.3,243.35,131.66,33.27-3.62,62.3-16.72,101.7-34.5C581.74,567,629.12,510.24,634.27,515.32,644.36,525.26,504.49,784.31,344.61,764.11Z" />
        </g>
    </g>
</svg>
