<svg xmlns="http://www.w3.org/2000/svg" viewBox="0 0 706 920">
    <defs>
        <style>
            .cls-1 {
                fill: gray;
            }

        </style>
    </defs>
    <g id="Layer_2" data-name="Layer 2">
        <g id="Layer_1-2" data-name="Layer 1">
            <path class="cls-1" d="M353,0C158,0,0,206,0,460S158,920,353,920s353-206,353-460S548,0,353,0ZM551,325c.32,3.73-39.52,11.7-76,12-32.26.27-70.16-5.39-70-9C405.32,321,550.39,317.93,551,325Zm-249,2c.16,3.61-37.74,9.27-70,9-36.48-.3-76.32-8.27-76-12C156.61,316.93,301.68,320,302,327Zm48,343c-104.57,2.39-217-15.19-217-31,0-16.07,116.2-29.69,196-33,106.15-4.4,237.23,5.77,238,23C567.73,645.16,453.85,667.63,350,670Z" />
        </g>
    </g>
</svg>
