<svg xmlns="http://www.w3.org/2000/svg" viewBox="0 0 723 873">
    <defs>
        <style>
            .cls-1 {
                fill: #0071bf;
            }

        </style>
    </defs>
    <g id="Layer_2" data-name="Layer 2">
        <g id="Layer_1-2" data-name="Layer 1">
            <path class="cls-1" d="M361.5,0C161.85,0,0,195.43,0,436.5S161.85,873,361.5,873,723,677.57,723,436.5,561.15,0,361.5,0Zm49.38,224.78c27.06-23,93.33,9,132.84,49,12.06,12.21,16.4,15.45,10.06,20.21-12.22,9.17-68.1-55.51-113.24-37-22.18,9.11-24.05,45.3-32.24,43.85C398.43,299.14,387.89,244.36,410.88,224.78ZM144,294c-6.34-4.76-2-8,10.06-20.21,39.51-40,105.78-72.05,132.84-49,23,19.58,12.45,74.36,2.58,76.1-8.19,1.45-10.06-34.74-32.24-43.85C212.1,238.49,156.23,303.17,144,294ZM440,622c-22.63-5.08-87.09-16.76-160,8-77.6,26.35-110.46,75.53-119,68-10.88-9.6,26.65-103.51,111-146,86.19-43.42,171.65-8.17,179-5,93.6,40.41,119.1,131.85,122,143A302.43,302.43,0,0,0,440,622Z" />
        </g>
    </g>
</svg>
